<?xml version="1.0" encoding="UTF-8" standalone="no"?>
<svg
   width="16.003952"
   height="16.003952"
   viewBox="0 0 4.2343789 4.2343791"
   version="1.1"
   id="svg4268"
   xmlns="http://www.w3.org/2000/svg"
   xmlns:svg="http://www.w3.org/2000/svg"
   xmlns:rdf="http://www.w3.org/1999/02/22-rdf-syntax-ns#"
   xmlns:cc="http://creativecommons.org/ns#"
   xmlns:dc="http://purl.org/dc/elements/1.1/">
  <defs
     id="defs4262" />
  <metadata
     id="metadata4265">
    <rdf:RDF>
      <cc:Work
         rdf:about="">
        <dc:format>image/svg+xml</dc:format>
        <dc:type
           rdf:resource="http://purl.org/dc/dcmitype/StillImage" />
      </cc:Work>
    </rdf:RDF>
  </metadata>
  <g
     id="constraint-block"
     style="display:inline"
     transform="translate(-69.91129,-10.064569)">
    <g
       id="g9"
       transform="translate(0.06168302,-44.968632)">
      <path
         style="color:#000000;fill:#000000;fill-opacity:0;stroke-width:0.529167;stroke-linecap:round;stroke-linejoin:round;-inkscape-stroke:none"
         d="m 70.114578,55.297916 h 3.704167 v 3.704167 h -3.704167 z"
         id="path8" />
      <path
         style="color:#000000;fill:#000000;stroke-linecap:round;stroke-linejoin:round;-inkscape-stroke:none"
         d="m 70.115234,55.033203 a 0.26460996,0.26460996 0 0 0 -0.265625,0.265625 v 3.703125 a 0.26460996,0.26460996 0 0 0 0.265625,0.265625 h 3.703125 a 0.26460996,0.26460996 0 0 0 0.265625,-0.265625 v -3.703125 a 0.26460996,0.26460996 0 0 0 -0.265625,-0.265625 z m 0.263672,0.529297 h 3.175781 v 3.175781 h -3.175781 z"
         id="path9" />
    </g>
    <path
       d="m 71.310681,12.672946 q 0.116064,0 0.197555,-0.02716 0.08396,-0.02963 0.118533,-0.06174 0.03457,-0.03457 0.06915,-0.06174 0.03704,-0.02963 0.06914,-0.02963 0.04939,0 0.08643,0.03704 0.03704,0.03704 0.03704,0.08643 0,0.106186 -0.170392,0.204963 -0.167921,0.09878 -0.414865,0.09878 -0.313619,0 -0.521052,-0.182739 -0.204964,-0.185208 -0.204964,-0.466724 v -0.162983 q 0,-0.296333 0.192617,-0.496357 0.192616,-0.200025 0.479071,-0.200025 0.172861,0 0.35066,0.08396 l 0.0247,0.0099 q 0.04198,-0.05927 0.103716,-0.05927 0.07161,0 0.09631,0.04198 0.02716,0.04198 0.02716,0.121002 v 0.207433 q 0,0.162983 -0.123472,0.162983 -0.04445,0 -0.07408,-0.02469 -0.02716,-0.02469 -0.03457,-0.04445 -0.0049,-0.02223 -0.01235,-0.06174 -0.01482,-0.07408 -0.09137,-0.118533 -0.07408,-0.04692 -0.138288,-0.05927 -0.06421,-0.01235 -0.118533,-0.01235 -0.187678,0 -0.31115,0.128411 -0.123472,0.125941 -0.123472,0.321027 v 0.158044 q 0,0.185208 0.130881,0.296333 0.133349,0.111125 0.355599,0.111125 z m 0.861835,0.212372 q -0.162983,0 -0.162983,-0.123472 0,-0.123472 0.162983,-0.123472 h 0.03704 v -0.945796 h -0.03704 q -0.162983,0 -0.162983,-0.123472 0,-0.07161 0.04198,-0.09631 0.04445,-0.02716 0.121002,-0.02716 h 0.624769 q 0.209902,0 0.345721,0.116064 0.138289,0.116064 0.138289,0.291394 0,0.158044 -0.155575,0.279047 0.261761,0.13088 0.261761,0.358068 0,0.1778 -0.13335,0.286455 -0.13335,0.108656 -0.35313,0.108656 z m 0.283986,-0.844549 h 0.279047 q 0.133349,0 0.214841,-0.05186 0.08396,-0.05433 0.08396,-0.138289 0,-0.07408 -0.06668,-0.116063 -0.06668,-0.04198 -0.182739,-0.04198 h -0.328435 z m 0.684035,0.464255 q 0,-0.09878 -0.09631,-0.158044 -0.09631,-0.05927 -0.254353,-0.05927 H 72.4565 v 0.350661 h 0.432152 q 0.251883,0 0.251883,-0.13335 z"
       id="text9"
       style="font-weight:bold;font-size:2.46944px;line-height:1.25;font-family:FreeMono;-inkscape-font-specification:'FreeMono, Bold';letter-spacing:0px;word-spacing:0px;stroke-width:0.264583"
       aria-label="CB" />
  </g>
</svg>
